<svg fill="#ffffff" version="1.1" id="Layer_1" xmlns="http://www.w3.org/2000/svg" xmlns:xlink="http://www.w3.org/1999/xlink" viewBox="0 0 512 512" xml:space="preserve" width="24px" height="24px" stroke="#ffffff"><g id="SVGRepo_bgCarrier" stroke-width="0"></g><g id="SVGRepo_tracerCarrier" stroke-linecap="round" stroke-linejoin="round"></g><g id="SVGRepo_iconCarrier"> <g> <g> <path d="M403.794,0H108.206C92.199,0,79.175,13.023,79.175,29.031v453.938c0,16.008,13.024,29.031,29.031,29.031h295.588 c16.007,0,29.031-13.023,29.031-29.031V29.031C432.825,13.023,419.801,0,403.794,0z M416.99,482.969 c0,7.277-5.919,13.196-13.196,13.196H108.206c-7.277,0-13.196-5.919-13.196-13.196V29.031c0-7.277,5.919-13.196,13.196-13.196 h295.588c7.277,0,13.196,5.919,13.196,13.196V482.969z"></path> </g> </g> <g> <g> <path d="M331.04,388.445l-51.627-7.511l-23.097-46.741l-23.096,46.74l-51.664,7.517l37.429,36.471l-8.891,51.433l46.223-24.343 l46.176,24.317l-8.749-51.408L331.04,388.445z M256.317,434.117l-25.14,13.239l4.833-27.953l-20.423-19.9l28.145-4.095 l12.585-25.469l12.586,25.468l28.181,4.1l-20.343,19.895l4.762,27.978L256.317,434.117z"></path> </g> </g> <g> <g> <path d="M331.04,240.652l-51.626-7.512l-23.097-46.74l-23.096,46.74l-51.664,7.517l37.429,36.471l-8.891,51.433l46.223-24.343 l46.176,24.317l-8.749-51.408L331.04,240.652z M256.317,286.323l-25.14,13.239l4.833-27.953l-20.423-19.9l28.145-4.095 l12.585-25.469l12.586,25.468l28.181,4.1l-20.343,19.895l4.762,27.978L256.317,286.323z"></path> </g> </g> <g> <g> <path d="M331.04,92.858l-51.626-7.512l-23.097-46.74l-23.096,46.74l-51.664,7.517l37.429,36.471l-8.891,51.433l46.223-24.343 l46.176,24.317l-8.749-51.408L331.04,92.858z M256.317,138.529l-25.14,13.239l4.833-27.953l-20.423-19.9l28.145-4.095 l12.585-25.469l12.586,25.468l28.181,4.1l-20.343,19.895l4.762,27.978L256.317,138.529z"></path> </g> </g> <g> <g> <rect x="372.124" y="42.227" width="21.113" height="15.835"></rect> </g> </g> <g> <g> <rect x="118.763" y="42.227" width="21.113" height="15.835"></rect> </g> </g> <g> <g> <rect x="372.124" y="453.938" width="21.113" height="15.835"></rect> </g> </g> <g> <g> <rect x="118.763" y="453.938" width="21.113" height="15.835"></rect> </g> </g> <g> <g> <rect x="372.124" y="253.361" width="21.113" height="15.835"></rect> </g> </g> <g> <g> <rect x="118.763" y="253.361" width="21.113" height="15.835"></rect> </g> </g> </g></svg>
