<svg fill="#ffffff" version="1.1" id="Capa_1" xmlns="http://www.w3.org/2000/svg" xmlns:xlink="http://www.w3.org/1999/xlink" width="24px" height="24px" viewBox="0 0 800 800" xml:space="preserve" stroke="#ffffff"><g id="SVGRepo_bgCarrier" stroke-width="0"></g><g id="SVGRepo_tracerCarrier" stroke-linecap="round" stroke-linejoin="round"></g><g id="SVGRepo_iconCarrier"> <g> <path d="M95.22,84.733C95.22,37.924,133.239,0,180.096,0c46.877,0,84.832,37.924,84.832,84.733 c0,46.82-37.955,84.734-84.832,84.734C133.239,169.467,95.22,131.554,95.22,84.733z M719.841,214.421 c-9.444-8.355-19.868-16.134-31.013-22.026c-6.333-3.344-13.014-5.99-19.848-8.084c-13.318-4.081-27.227-5.653-41.132-6.11 l27.398,229.547l-36.126,37.021l-31.602-37.021l21.851-229.405c-13.275,0.889-26.55,2.952-39.238,6.999 c-6.289,2.008-12.493,4.449-18.367,7.487c-29.729,15.342-53.582,40.809-68.729,70.443c-13.929,27.234-25.049,56.608-31.229,82.705 c-2.504,10.372-5.571,21.907-10.796,27.636c-3.241,3.559-13.515,5.522-22.59,7.248l-6.897,1.367c-4.312,0.89-18.738,0.89-23.049,0 l-6.898-1.367c-9.075-1.726-19.346-3.688-22.589-7.248c-5.225-5.729-8.292-17.264-10.772-27.636 c-6.204-26.097-17.323-55.471-31.253-82.705c-15.147-29.634-38.998-55.101-68.727-70.443c-5.876-3.038-12.079-5.479-18.368-7.487 c-12.689-4.047-25.964-6.109-39.261-6.999l21.872,229.405l-31.6,37.021l-36.126-37.021l27.399-229.547 c-13.906,0.457-27.813,2.029-41.132,6.11c-6.834,2.094-13.515,4.74-19.848,8.084c-11.142,5.892-21.567,13.67-31.013,22.026 C37.83,251.877,14.892,316.862,10.038,413.118c-0.827,16.591,11.969,30.741,28.597,31.564c0.5,0.033,1.022,0.044,1.523,0.044 c15.952,0,29.25-12.501,30.098-28.58c3.287-64.964,16.126-113.401,37.28-142.331c-1.523,30.069-4.199,83.986-6.551,139.323 c-0.348,1.597-0.761,3.18-0.87,4.84L76.197,755.838c-1.502,21.507,14.69,40.148,36.214,41.666c0.914,0.065,1.85,0.1,2.786,0.1 c20.327,0,37.454-15.701,38.934-36.254L173,495.269c2.851-0.77,5.68-1.495,8.139-1.495c2.894,0,5.658,0.521,8.466,0.855 l17.433,268.893c1.327,20.637,18.52,36.479,38.956,36.479c0.827,0,1.697-0.021,2.545-0.086 c21.524-1.379,37.846-19.944,36.475-41.45c0,0-21.306-323.905-21.872-326.128c-1.828-48.752-7.291-119.716-10.468-158.605 c4.31,5.848,8.009,11.75,10.621,16.916c11.644,22.755,21.24,48.003,26.268,69.25c4.265,17.697,10.01,37.945,24.917,54.275 c8.771,9.614,20.501,16.285,32.515,20.812c6.137,2.31,12.514,4.079,18.955,5.252c20.458,3.722,43.353,3.646,63.788-0.261 c16.475-3.146,39.021-7.455,55.777-25.804c14.907-16.33,20.653-36.578,24.92-54.275c5.026-21.247,14.624-46.495,26.268-69.25 c2.612-5.165,6.312-11.067,10.621-16.916c-3.18,38.889-8.642,109.853-10.469,158.605c-0.564,2.223-21.872,326.128-21.872,326.128 c-1.371,21.506,14.951,40.071,36.476,41.45c0.85,0.064,1.719,0.086,2.546,0.086c20.437,0,37.607-15.843,38.957-36.479 l17.433-268.893c2.808-0.335,5.549-0.855,8.466-0.855c2.459,0,5.288,0.727,8.139,1.496l18.869,266.08 c1.457,20.553,18.607,36.254,38.935,36.254c0.937,0,1.871-0.033,2.785-0.1c21.523-1.518,37.716-20.159,36.214-41.666 L699.907,417.98c-0.13-1.661-0.543-3.244-0.894-4.841c-2.371-55.336-5.025-109.253-6.551-139.323 c21.154,28.929,33.995,77.366,37.281,142.331c0.85,16.08,14.146,28.581,30.098,28.581c0.501,0,1.001-0.012,1.524-0.045 c16.626-0.823,29.424-14.975,28.597-31.564C785.109,316.862,762.171,251.877,719.841,214.421z M619.907,169.467 c46.854,0,84.875-37.914,84.875-84.734C704.782,37.924,666.761,0,619.907,0c-46.879,0-84.835,37.924-84.835,84.733 C535.072,131.554,573.028,169.467,619.907,169.467z"></path> </g> </g></svg>
